<svg width="32" height="32" viewBox="0 0 32 32" fill="none" xmlns="http://www.w3.org/2000/svg"><path d="M19.3685 14.6642C18.3796 14.6642 17.4129 14.9574 16.5907 15.5068C15.7684 16.0562 15.1276 16.8371 14.7491 17.7508C14.3707 18.6644 14.2717 19.6697 14.4646 20.6396C14.6575 21.6095 15.1337 22.5005 15.833 23.1997C16.5323 23.899 17.4232 24.3752 18.3931 24.5681C19.363 24.761 20.3683 24.662 21.2819 24.2836C22.1956 23.9051 22.9765 23.2643 23.5259 22.442C24.0753 21.6198 24.3685 20.6531 24.3685 19.6642M20.3685 10.7192C18.5146 10.5112 16.6418 10.8845 15.0093 11.7874C13.3768 12.6903 12.0652 14.0782 11.256 15.7591C10.4467 17.44 10.1798 19.3308 10.4922 21.17C10.8045 23.0093 11.6807 24.706 12.9996 26.0255C14.3184 27.3449 16.0146 28.222 17.8537 28.5353C19.6928 28.8486 21.5838 28.5826 23.2651 27.7742C24.9464 26.9658 26.3349 25.6549 27.2386 24.0229C28.1424 22.3908 28.5166 20.5182 28.3095 18.6642M22.3685 16.6642V13.6642L25.3685 10.6642V13.6642H28.3685L25.3685 16.6642H22.3685ZM22.3685 16.6642L19.3685 19.6642M18.3685 19.6642C18.3685 19.9294 18.4739 20.1838 18.6614 20.3713C18.849 20.5588 19.1033 20.6642 19.3685 20.6642C19.6337 20.6642 19.8881 20.5588 20.0756 20.3713C20.2632 20.1838 20.3685 19.9294 20.3685 19.6642C20.3685 19.399 20.2632 19.1446 20.0756 18.9571C19.8881 18.7695 19.6337 18.6642 19.3685 18.6642C19.1033 18.6642 18.849 18.7695 18.6614 18.9571C18.4739 19.1446 18.3685 19.399 18.3685 19.6642Z" stroke="currentColor" stroke-linecap="round" stroke-linejoin="round"/><path d="M6.09998 3.16406V10.1641M2.59998 6.66406H9.59998" stroke="currentColor" stroke-width="2" stroke-linecap="round" stroke-linejoin="round"/></svg>